<svg width="24" height="24" viewBox="0 0 24 24" fill="none" xmlns="http://www.w3.org/2000/svg">
<path fill-rule="evenodd" clip-rule="evenodd" d="M19.291 4H14.9981V3H20.9981V9H19.9981V4.70711L12.8516 11.8536L12.1445 11.1464L19.291 4Z" fill="#2A2A2A"/>
<path fill-rule="evenodd" clip-rule="evenodd" d="M7.5 6C6.67157 6 6 6.67157 6 7.5V16.5C6 17.3284 6.67157 18 7.5 18H16.5C17.3284 18 18 17.3284 18 16.5V12.5C18 12.2239 18.2239 12 18.5 12C18.7761 12 19 12.2239 19 12.5V16.5C19 17.8807 17.8807 19 16.5 19H7.5C6.11929 19 5 17.8807 5 16.5V7.5C5 6.11929 6.11929 5 7.5 5H11.5C11.7761 5 12 5.22386 12 5.5C12 5.77614 11.7761 6 11.5 6H7.5Z" fill="#2A2A2A"/>
</svg>
