<svg width="24" height="24" viewBox="0 0 24 24" fill="none" xmlns="http://www.w3.org/2000/svg">
<path fill-rule="evenodd" clip-rule="evenodd" d="M6.64453 9.35348L7.35164 8.64637L11.4981 12.7928L11.4981 4.99992C11.4981 4.72378 11.7219 4.49992 11.9981 4.49992C12.2742 4.49992 12.4981 4.72378 12.4981 4.99992L12.4981 12.7928L16.6445 8.64637L17.3516 9.35348L11.9981 14.707L6.64453 9.35348Z" fill="#2A2A2A"/>
<path fill-rule="evenodd" clip-rule="evenodd" d="M5.5 16V17C5.5 17.8284 6.17157 18.5 7 18.5L17 18.5C17.8284 18.5 18.5 17.8284 18.5 17V16H19.5V17C19.5 18.3807 18.3807 19.5 17 19.5L7 19.5C5.61929 19.5 4.5 18.3807 4.5 17V16H5.5Z" fill="#2A2A2A"/>
</svg>
