<svg width="16" height="16" viewBox="0 0 16 16" fill="none" xmlns="http://www.w3.org/2000/svg">
<path d="M8.82616 14.858C8.59517 15.0695 8.39841 15.2409 8.25096 15.366C8.08806 15.2424 7.86729 15.0703 7.60673 14.8559C7.03079 14.3818 6.26429 13.7037 5.49946 12.8867C3.94523 11.2264 2.50038 9.09995 2.5 6.99991C2.49976 5.66004 3.16318 4.28088 4.21056 3.22782C5.25757 2.17514 6.63637 1.50045 8 1.50045C9.36362 1.50045 10.7423 2.17513 11.7892 3.22781C12.8365 4.28087 13.5 5.66006 13.5 7C13.5 9.06134 12.1727 11.1925 10.753 12.8643C10.0535 13.688 9.35262 14.3759 8.82616 14.858Z" stroke="#C99A91"/>
<circle cx="8" cy="7" r="1" fill="#C99A91"/>
</svg>
