<svg width="83" height="40" viewBox="0 0 83 40" fill="none" xmlns="http://www.w3.org/2000/svg">
<path d="M2.8407 38H1.35775L3.61733 31.4545H5.40071L7.65711 38H6.17415L4.53459 32.9503H4.48346L2.8407 38ZM2.74802 35.4272H6.25086V36.5075H2.74802V35.4272ZM10.8749 38V31.4545H13.4573C13.9516 31.4545 14.3735 31.543 14.7229 31.7198C15.0745 31.8945 15.3419 32.1428 15.5251 32.4645C15.7105 32.7841 15.8032 33.1602 15.8032 33.5927C15.8032 34.0273 15.7094 34.4013 15.5219 34.7145C15.3344 35.0256 15.0628 35.2642 14.707 35.4304C14.3533 35.5966 13.925 35.6797 13.4222 35.6797H11.6931V34.5675H13.1984C13.4626 34.5675 13.6821 34.5312 13.8568 34.4588C14.0315 34.3864 14.1615 34.2777 14.2467 34.1328C14.3341 33.9879 14.3778 33.8079 14.3778 33.5927C14.3778 33.3754 14.3341 33.1921 14.2467 33.043C14.1615 32.8938 14.0305 32.7809 13.8536 32.7042C13.6789 32.6254 13.4584 32.5859 13.192 32.5859H12.2588V38H10.8749ZM14.4097 35.0213L16.0365 38H14.5088L12.9172 35.0213H14.4097ZM24.9864 33.7461H23.5865C23.561 33.565 23.5088 33.4041 23.4299 33.2635C23.3511 33.1207 23.2499 32.9993 23.1263 32.8991C23.0027 32.799 22.86 32.7223 22.698 32.669C22.5382 32.6158 22.3646 32.5891 22.1771 32.5891C21.8383 32.5891 21.5432 32.6733 21.2918 32.8416C21.0404 33.0078 20.8454 33.2507 20.7069 33.5703C20.5684 33.8878 20.4992 34.2734 20.4992 34.7273C20.4992 35.1939 20.5684 35.5859 20.7069 35.9034C20.8475 36.2209 21.0436 36.4606 21.295 36.6225C21.5464 36.7844 21.8372 36.8654 22.1675 36.8654C22.3529 36.8654 22.5244 36.8409 22.6821 36.7919C22.8419 36.7429 22.9835 36.6715 23.1071 36.5778C23.2307 36.4819 23.333 36.3658 23.4139 36.2294C23.497 36.093 23.5546 35.9375 23.5865 35.7628L24.9864 35.7692C24.9502 36.0696 24.8596 36.3594 24.7147 36.6385C24.572 36.9155 24.3791 37.1637 24.1362 37.3832C23.8955 37.6005 23.6078 37.7731 23.2733 37.9009C22.9409 38.0266 22.5649 38.0895 22.1451 38.0895C21.5613 38.0895 21.0393 37.9574 20.5791 37.6932C20.121 37.429 19.7588 37.0465 19.4924 36.5458C19.2282 36.0451 19.0961 35.4389 19.0961 34.7273C19.0961 34.0135 19.2304 33.4062 19.4988 32.9055C19.7673 32.4048 20.1316 32.0234 20.5919 31.7614C21.0521 31.4972 21.5698 31.3651 22.1451 31.3651C22.5244 31.3651 22.8759 31.4183 23.1998 31.5249C23.5258 31.6314 23.8145 31.7869 24.0659 31.9915C24.3174 32.1939 24.5219 32.4421 24.6796 32.7362C24.8394 33.0302 24.9416 33.3668 24.9864 33.7461ZM28.4088 38V31.4545H29.7926V34.1552H32.6019V31.4545H33.9826V38H32.6019V35.2962H29.7926V38H28.4088ZM38.9375 31.4545V38H37.5536V31.4545H38.9375ZM42.2568 32.5955V31.4545H47.6325V32.5955H45.6286V38H44.2607V32.5955H42.2568ZM50.9478 38V31.4545H55.3583V32.5955H52.3317V34.1552H55.1314V35.2962H52.3317V36.859H55.3711V38H50.9478ZM64.6637 33.7461H63.2639C63.2383 33.565 63.1861 33.4041 63.1073 33.2635C63.0284 33.1207 62.9272 32.9993 62.8036 32.8991C62.6801 32.799 62.5373 32.7223 62.3754 32.669C62.2156 32.6158 62.0419 32.5891 61.8544 32.5891C61.5157 32.5891 61.2206 32.6733 60.9691 32.8416C60.7177 33.0078 60.5228 33.2507 60.3843 33.5703C60.2458 33.8878 60.1765 34.2734 60.1765 34.7273C60.1765 35.1939 60.2458 35.5859 60.3843 35.9034C60.5249 36.2209 60.7209 36.4606 60.9723 36.6225C61.2237 36.7844 61.5146 36.8654 61.8448 36.8654C62.0302 36.8654 62.2017 36.8409 62.3594 36.7919C62.5192 36.7429 62.6609 36.6715 62.7845 36.5778C62.9081 36.4819 63.0103 36.3658 63.0913 36.2294C63.1744 36.093 63.2319 35.9375 63.2639 35.7628L64.6637 35.7692C64.6275 36.0696 64.537 36.3594 64.3921 36.6385C64.2493 36.9155 64.0565 37.1637 63.8136 37.3832C63.5728 37.6005 63.2852 37.7731 62.9507 37.9009C62.6183 38.0266 62.2422 38.0895 61.8225 38.0895C61.2387 38.0895 60.7166 37.9574 60.2564 37.6932C59.7983 37.429 59.4361 37.0465 59.1698 36.5458C58.9056 36.0451 58.7735 35.4389 58.7735 34.7273C58.7735 34.0135 58.9077 33.4062 59.1762 32.9055C59.4446 32.4048 59.809 32.0234 60.2692 31.7614C60.7294 31.4972 61.2472 31.3651 61.8225 31.3651C62.2017 31.3651 62.5533 31.4183 62.8772 31.5249C63.2032 31.6314 63.4919 31.7869 63.7433 31.9915C63.9947 32.1939 64.1992 32.4421 64.3569 32.7362C64.5167 33.0302 64.619 33.3668 64.6637 33.7461ZM67.8368 32.5955V31.4545H73.2125V32.5955H71.2086V38H69.8407V32.5955H67.8368ZM80.0786 33.337C80.053 33.0792 79.9433 32.8789 79.7494 32.7362C79.5555 32.5934 79.2924 32.522 78.96 32.522C78.7341 32.522 78.5434 32.554 78.3879 32.6179C78.2324 32.6797 78.113 32.766 78.0299 32.8768C77.949 32.9876 77.9085 33.1133 77.9085 33.2539C77.9042 33.3711 77.9287 33.4734 77.982 33.5607C78.0374 33.6481 78.113 33.7237 78.2089 33.7876C78.3048 33.8494 78.4156 33.9038 78.5413 33.9506C78.667 33.9954 78.8013 34.0337 78.944 34.0657L79.5321 34.2063C79.8176 34.2702 80.0797 34.3555 80.3183 34.462C80.5569 34.5685 80.7636 34.6996 80.9383 34.8551C81.113 35.0107 81.2483 35.1939 81.3442 35.4048C81.4422 35.6158 81.4923 35.8576 81.4944 36.1303C81.4923 36.5309 81.39 36.8782 81.1876 37.1722C80.9873 37.4641 80.6976 37.6911 80.3183 37.853C79.9412 38.0128 79.4863 38.0927 78.9536 38.0927C78.4252 38.0927 77.965 38.0117 77.5729 37.8498C77.183 37.6879 76.8783 37.4482 76.6589 37.1307C76.4415 36.8111 76.3275 36.4158 76.3169 35.945H77.656C77.6709 36.1644 77.7338 36.3477 77.8446 36.4947C77.9575 36.6396 78.1077 36.7493 78.2952 36.8239C78.4848 36.8963 78.699 36.9325 78.9376 36.9325C79.172 36.9325 79.3755 36.8984 79.5481 36.8303C79.7228 36.7621 79.8581 36.6673 79.954 36.5458C80.0498 36.4244 80.0978 36.2848 80.0978 36.1271C80.0978 35.9801 80.0541 35.8565 79.9667 35.7564C79.8815 35.6562 79.7558 35.571 79.5896 35.5007C79.4255 35.4304 79.2242 35.3665 78.9856 35.3089L78.2728 35.13C77.721 34.9957 77.2853 34.7859 76.9657 34.5004C76.6461 34.2148 76.4873 33.8303 76.4895 33.3466C76.4873 32.9503 76.5928 32.604 76.8059 32.3079C77.0211 32.0117 77.3162 31.7805 77.6912 31.6143C78.0662 31.4482 78.4923 31.3651 78.9696 31.3651C79.4554 31.3651 79.8794 31.4482 80.2416 31.6143C80.6059 31.7805 80.8893 32.0117 81.0917 32.3079C81.2942 32.604 81.3986 32.9471 81.4049 33.337H80.0786Z" fill="#2A2A2A"/>
<path d="M18 5.61902L24 -2.86102e-05L30 5.61902H26.5L24 3.11902L21.5 5.61902H18Z" fill="#2A2A2A"/>
<path d="M0.757956 23.6191V9.07369H3.83324V15.0751H10.0761V9.07369H13.1443V23.6191H10.0761V17.6106H3.83324V23.6191H0.757956ZM27.4642 9.07369H30.5395V18.5197C30.5395 19.5803 30.2862 20.5083 29.7795 21.3038C29.2777 22.0993 28.5745 22.7195 27.6702 23.1646C26.7658 23.6049 25.7123 23.8251 24.5097 23.8251C23.3023 23.8251 22.2464 23.6049 21.342 23.1646C20.4377 22.7195 19.7346 22.0993 19.2327 21.3038C18.7308 20.5083 18.4798 19.5803 18.4798 18.5197V9.07369H21.5551V18.2569C21.5551 18.8109 21.6759 19.3033 21.9173 19.7342C22.1635 20.1651 22.5092 20.5036 22.9543 20.7498C23.3993 20.996 23.9178 21.1191 24.5097 21.1191C25.1063 21.1191 25.6247 20.996 26.0651 20.7498C26.5101 20.5036 26.8534 20.1651 27.0949 19.7342C27.3411 19.3033 27.4642 18.8109 27.4642 18.2569V9.07369ZM41.0259 23.6191H35.8697V9.07369H41.0685C42.5316 9.07369 43.7911 9.36488 44.8469 9.94727C45.9028 10.5249 46.7148 11.3559 47.283 12.4402C47.8559 13.5244 48.1424 14.8218 48.1424 16.3322C48.1424 17.8474 47.8559 19.1494 47.283 20.2385C46.7148 21.3275 45.8981 22.1632 44.8327 22.7456C43.7721 23.3279 42.5032 23.6191 41.0259 23.6191ZM38.945 20.9842H40.8981C41.8072 20.9842 42.5719 20.8232 43.1921 20.5012C43.8171 20.1745 44.2859 19.6703 44.5984 18.9885C44.9156 18.3019 45.0742 17.4165 45.0742 16.3322C45.0742 15.2574 44.9156 14.3791 44.5984 13.6973C44.2859 13.0154 43.8195 12.5136 43.1992 12.1916C42.579 11.8696 41.8143 11.7086 40.9052 11.7086H38.945V20.9842ZM66.5869 16.3464C66.5869 17.9326 66.2863 19.282 65.6849 20.3947C65.0884 21.5074 64.274 22.3573 63.2418 22.9444C62.2143 23.5268 61.059 23.818 59.7759 23.818C58.4832 23.818 57.3232 23.5244 56.2957 22.9373C55.2683 22.3502 54.4563 21.5003 53.8597 20.3876C53.2631 19.2749 52.9648 17.9279 52.9648 16.3464C52.9648 14.7602 53.2631 13.4108 53.8597 12.2981C54.4563 11.1854 55.2683 10.3379 56.2957 9.7555C57.3232 9.16838 58.4832 8.87482 59.7759 8.87482C61.059 8.87482 62.2143 9.16838 63.2418 9.7555C64.274 10.3379 65.0884 11.1854 65.6849 12.2981C66.2863 13.4108 66.5869 14.7602 66.5869 16.3464ZM63.469 16.3464C63.469 15.319 63.3152 14.4525 63.0074 13.747C62.7044 13.0415 62.2759 12.5065 61.7219 12.1419C61.1679 11.7773 60.5192 11.595 59.7759 11.595C59.0325 11.595 58.3838 11.7773 57.8298 12.1419C57.2759 12.5065 56.845 13.0415 56.5372 13.747C56.2342 14.4525 56.0827 15.319 56.0827 16.3464C56.0827 17.3739 56.2342 18.2404 56.5372 18.9458C56.845 19.6513 57.2759 20.1864 57.8298 20.551C58.3838 20.9155 59.0325 21.0978 59.7759 21.0978C60.5192 21.0978 61.1679 20.9155 61.7219 20.551C62.2759 20.1864 62.7044 19.6513 63.0074 18.9458C63.3152 18.2404 63.469 17.3739 63.469 16.3464ZM79.5556 13.2569C79.4988 12.684 79.2549 12.2389 78.8241 11.9217C78.3932 11.6045 77.8085 11.4458 77.0698 11.4458C76.5679 11.4458 76.1442 11.5169 75.7985 11.6589C75.4529 11.7962 75.1877 11.988 75.0031 12.2342C74.8231 12.4804 74.7332 12.7598 74.7332 13.0723C74.7237 13.3327 74.7781 13.56 74.8965 13.7541C75.0196 13.9482 75.1877 14.1163 75.4008 14.2583C75.6138 14.3957 75.8601 14.5164 76.1394 14.6206C76.4188 14.72 76.7171 14.8052 77.0343 14.8762L78.3411 15.1887C78.9756 15.3308 79.558 15.5202 80.0883 15.7569C80.6186 15.9937 81.0779 16.2849 81.4661 16.6305C81.8544 16.9761 82.155 17.3833 82.3681 17.8521C82.5859 18.3208 82.6972 18.8583 82.7019 19.4643C82.6972 20.3545 82.4699 21.1262 82.0201 21.7797C81.575 22.4283 80.9311 22.9326 80.0883 23.2924C79.2502 23.6475 78.2393 23.8251 77.0556 23.8251C75.8814 23.8251 74.8586 23.6452 73.9874 23.2853C73.121 22.9255 72.4439 22.3928 71.9562 21.6873C71.4732 20.9771 71.2199 20.0988 71.1962 19.0524H74.1721C74.2052 19.5401 74.3449 19.9473 74.5911 20.274C74.8421 20.5959 75.1759 20.8398 75.5925 21.0055C76.0139 21.1665 76.4898 21.247 77.0201 21.247C77.5409 21.247 77.9931 21.1712 78.3766 21.0197C78.7649 20.8682 79.0656 20.6575 79.2786 20.3876C79.4917 20.1177 79.5982 19.8076 79.5982 19.4572C79.5982 19.1305 79.5012 18.8559 79.307 18.6333C79.1176 18.4108 78.8383 18.2214 78.469 18.0652C78.1044 17.9089 77.6569 17.7669 77.1266 17.639L75.5428 17.2413C74.3165 16.943 73.3482 16.4766 72.638 15.8422C71.9278 15.2077 71.575 14.353 71.5798 13.2782C71.575 12.3975 71.8094 11.6281 72.2829 10.97C72.7611 10.3118 73.4169 9.79812 74.2502 9.4288C75.0835 9.05948 76.0305 8.87482 77.0911 8.87482C78.1707 8.87482 79.1129 9.05948 79.9178 9.4288C80.7275 9.79812 81.3572 10.3118 81.807 10.97C82.2568 11.6281 82.4888 12.3904 82.5031 13.2569H79.5556Z" fill="#2A2A2A"/>
<path d="M0.5 0H14V2H0.5V0Z" fill="#2A2A2A"/>
<path d="M35 0H82V2H35V0Z" fill="#2A2A2A"/>
</svg>
